<svg width="102" height="40" viewBox="0 0 102 40" fill="none" xmlns="http://www.w3.org/2000/svg">
<path d="M25.3906 0.766602H33.0566L20.9473 20.3467L33.0811 40H25.0488L16.7725 26.4258L8.49609 40H0.463867L12.5977 20.3467L0.488281 0.766602H8.17871L16.7725 14.8779L25.3906 0.766602Z" fill="#296193"/>
<path d="M55.5908 21.6406C55.5908 19.4922 55.2572 17.8809 54.5898 16.8066C53.9225 15.7324 52.8239 15.1953 51.2939 15.1953C49.7803 15.1953 48.4212 15.5208 47.2168 16.1719C46.0124 16.8229 45.0846 17.596 44.4336 18.4912V40H37.3047V11.0693H42.6758L43.9209 15.1709C44.7835 13.7386 45.9798 12.5749 47.5098 11.6797C49.0397 10.7845 50.7975 10.3369 52.7832 10.3369C56.2988 10.3369 58.8379 11.3298 60.4004 13.3154C61.9629 15.2848 62.7441 18.182 62.7441 22.0068V40H55.5908V21.6406Z" fill="black"/>
<path d="M88.9404 0.766602L101.929 40H94.4336L91.5527 30.9912H77.4902L74.6338 40H67.1143L80.0049 0.766602H88.9404ZM78.4912 27.4023H90.5762L84.6191 8.62793L78.4912 27.4023Z" fill="#67BD79"/>
</svg>
